<?xml version="1.0" encoding="UTF-8"?>
<svg width="44px" height="44px" viewBox="0 0 44 44" version="1.1" xmlns="http://www.w3.org/2000/svg" xmlns:xlink="http://www.w3.org/1999/xlink">
    <title>icon_line/settings</title>
    <g id="icon_line/settings" stroke="none" stroke-width="1" fill="none" fill-rule="evenodd" stroke-linecap="round" stroke-linejoin="round">
        <path d="M18.9291667,7.9145 C19.7101667,4.69516667 24.2898333,4.69516667 25.0708333,7.9145 C25.3085122,8.89544187 26.0003952,9.70387778 26.9328612,10.0902007 C27.8653272,10.4765235 28.9262253,10.394269 29.788,9.86883333 C32.6168333,8.1455 35.8563333,11.3831667 34.133,14.2138333 C33.6083229,15.0752322 33.5262668,16.1353153 33.9121346,17.0671951 C34.2980024,17.999075 35.1054528,18.6908361 36.0855,18.9291667 C39.3048333,19.7101667 39.3048333,24.2898333 36.0855,25.0708333 C35.1045581,25.3085122 34.2961222,26.0003952 33.9097993,26.9328612 C33.5234765,27.8653272 33.605731,28.9262253 34.1311667,29.788 C35.8545,32.6168333 32.6168333,35.8563333 29.7861667,34.133 C28.9247678,33.6083229 27.8646847,33.5262668 26.9328049,33.9121346 C26.000925,34.2980024 25.3091639,35.1054528 25.0708333,36.0855 C24.2898333,39.3048333 19.7101667,39.3048333 18.9291667,36.0855 C18.6914878,35.1045581 17.9996048,34.2961222 17.0671388,33.9097993 C16.1346728,33.5234765 15.0737747,33.605731 14.212,34.1311667 C11.3831667,35.8545 8.14366667,32.6168333 9.867,29.7861667 C10.3916771,28.9247678 10.4737332,27.8646847 10.0878654,26.9328049 C9.70199757,26.000925 8.89454721,25.3091639 7.9145,25.0708333 C4.69516667,24.2898333 4.69516667,19.7101667 7.9145,18.9291667 C8.89544187,18.6914878 9.70387778,17.9996048 10.0902007,17.0671388 C10.4765235,16.1346728 10.394269,15.0737747 9.86883333,14.212 C8.1455,11.3831667 11.3831667,8.14366667 14.2138333,9.867 C16.0471667,10.9816667 18.4231667,9.99533333 18.9291667,7.9145 Z" id="Path" stroke="#008EE9" stroke-width="2"></path>
        <circle id="Oval" stroke="#008EE9" stroke-width="2" cx="22" cy="22" r="5.5"></circle>
    </g>
</svg>