<svg xmlns="http://www.w3.org/2000/svg" xmlns:xlink="http://www.w3.org/1999/xlink" width="500" zoomAndPan="magnify" viewBox="0 0 375 374.999991" height="500" preserveAspectRatio="xMidYMid meet" version="1.0"><defs><clipPath id="f85397493a"><path d="M 18.695312 27.132812 L 356.195312 27.132812 L 356.195312 348 L 18.695312 348 Z M 18.695312 27.132812 " clip-rule="nonzero"/></clipPath></defs><g clip-path="url(#f85397493a)"><path fill="#008ee9" d="M 353.390625 118.523438 L 190.40625 28.300781 C 188.660156 27.136719 186.332031 27.136719 184.585938 28.300781 L 21.605469 118.523438 C 19.859375 119.6875 18.695312 121.433594 18.695312 123.761719 L 18.695312 342.042969 C 18.695312 345.535156 21.023438 347.863281 24.515625 347.863281 L 350.480469 347.863281 C 353.972656 347.863281 356.300781 345.535156 356.300781 342.042969 L 356.300781 123.761719 C 356.300781 121.433594 355.136719 119.6875 353.390625 118.523438 Z M 303.332031 336.222656 L 274.808594 336.222656 L 274.808594 179.058594 C 274.808594 175.566406 272.480469 173.238281 268.988281 173.238281 L 187.496094 173.238281 C 184.003906 173.238281 181.675781 175.566406 181.675781 179.058594 L 181.675781 254.730469 L 106.007812 254.730469 C 102.511719 254.730469 100.183594 257.058594 100.183594 260.550781 L 100.183594 336.222656 L 71.664062 336.222656 L 71.664062 152.285156 L 303.332031 152.285156 Z M 138.601562 266.371094 L 154.902344 266.371094 L 154.902344 276.847656 L 150.242188 273.9375 C 148.496094 272.773438 146.167969 272.773438 143.839844 273.9375 L 139.183594 276.847656 L 139.183594 266.371094 Z M 129.871094 292.566406 C 131.617188 293.730469 133.945312 293.730469 135.691406 292.566406 L 146.167969 285.578125 L 156.648438 292.566406 C 157.8125 293.148438 158.394531 293.730469 159.558594 293.730469 C 160.722656 293.730469 161.304688 293.730469 162.46875 293.148438 C 164.214844 291.984375 165.378906 290.238281 165.378906 287.910156 L 165.378906 266.953125 L 181.675781 266.953125 L 181.675781 336.804688 L 111.828125 336.804688 L 111.828125 266.953125 L 126.960938 266.953125 L 126.960938 287.910156 C 126.960938 289.65625 128.125 291.402344 129.871094 292.566406 Z M 220.09375 184.878906 L 236.390625 184.878906 L 236.390625 195.359375 L 231.734375 192.449219 C 229.988281 191.285156 227.660156 191.285156 225.332031 192.449219 L 220.675781 195.359375 L 220.675781 184.878906 Z M 211.363281 211.074219 C 213.109375 212.238281 215.4375 212.238281 217.183594 211.074219 L 227.660156 204.089844 L 238.136719 211.074219 C 239.300781 211.65625 239.882812 212.238281 241.046875 212.238281 C 242.210938 212.238281 242.792969 212.238281 243.957031 211.65625 C 245.703125 210.492188 246.867188 208.746094 246.867188 206.417969 L 246.867188 185.460938 L 263.167969 185.460938 L 263.167969 255.3125 L 193.316406 255.3125 L 193.316406 185.460938 L 208.453125 185.460938 L 208.453125 206.417969 C 208.453125 208.164062 209.617188 209.910156 211.363281 211.074219 Z M 220.09375 266.371094 L 236.390625 266.371094 L 236.390625 276.847656 L 231.734375 273.9375 C 229.988281 272.773438 227.660156 272.773438 225.332031 273.9375 L 220.675781 276.847656 L 220.675781 266.371094 Z M 193.316406 266.371094 L 208.453125 266.371094 L 208.453125 287.324219 C 208.453125 289.65625 209.617188 291.402344 211.363281 292.566406 C 213.109375 293.730469 215.4375 293.730469 217.183594 292.566406 L 227.660156 285.578125 L 238.136719 292.566406 C 239.300781 293.148438 239.882812 293.730469 241.046875 293.730469 C 242.210938 293.730469 242.792969 293.730469 243.957031 293.148438 C 245.703125 291.984375 246.867188 290.238281 246.867188 287.910156 L 246.867188 266.953125 L 263.167969 266.953125 L 263.167969 336.804688 L 193.316406 336.804688 Z M 344.65625 336.222656 L 314.972656 336.222656 L 314.972656 146.464844 C 314.972656 142.972656 312.644531 140.640625 309.152344 140.640625 L 65.84375 140.640625 C 62.351562 140.640625 60.023438 142.972656 60.023438 146.464844 L 60.023438 336.222656 L 30.335938 336.222656 L 30.335938 127.253906 L 187.496094 39.941406 L 344.65625 126.671875 Z M 344.65625 336.222656 " fill-opacity="1" fill-rule="nonzero"/></g><path fill="#008ee9" d="M 160.140625 85.925781 C 160.140625 89.417969 162.46875 91.746094 165.960938 91.746094 L 209.617188 91.746094 C 213.109375 91.746094 215.4375 89.417969 215.4375 85.925781 C 215.4375 82.433594 213.109375 80.105469 209.617188 80.105469 L 165.960938 80.105469 C 162.46875 80.105469 160.140625 82.433594 160.140625 85.925781 Z M 160.140625 85.925781 " fill-opacity="1" fill-rule="nonzero"/><path fill="#008ee9" d="M 209.617188 105.71875 L 165.960938 105.71875 C 162.46875 105.71875 160.140625 108.046875 160.140625 111.539062 C 160.140625 115.03125 162.46875 117.359375 165.960938 117.359375 L 209.617188 117.359375 C 213.109375 117.359375 215.4375 115.03125 215.4375 111.539062 C 215.4375 108.046875 212.527344 105.71875 209.617188 105.71875 Z M 209.617188 105.71875 " fill-opacity="1" fill-rule="nonzero"/></svg>