<?xml version="1.0" encoding="UTF-8"?>
<svg width="44px" height="44px" viewBox="0 0 44 44" version="1.1" xmlns="http://www.w3.org/2000/svg" xmlns:xlink="http://www.w3.org/1999/xlink">
    <title>icon_line/ruler</title>
    <g id="icon_line/ruler" stroke="none" stroke-width="1" fill="none" fill-rule="evenodd">
        <g id="Group">
            <polygon id="Path" points="0 0 44 0 44 44 0 44"></polygon>
            <path d="M9.16666667,7.33333333 L34.8333333,7.33333333 C35.8458554,7.33333333 36.6666667,8.15414463 36.6666667,9.16666667 L36.6666667,18.3333333 C36.6666667,19.3458554 35.8458554,20.1666667 34.8333333,20.1666667 L22,20.1666667 C20.987478,20.1666667 20.1666667,20.987478 20.1666667,22 L20.1666667,34.8333333 C20.1666667,35.8458554 19.3458554,36.6666667 18.3333333,36.6666667 L9.16666667,36.6666667 C8.15414463,36.6666667 7.33333333,35.8458554 7.33333333,34.8333333 L7.33333333,9.16666667 C7.33333333,8.15414463 8.15414463,7.33333333 9.16666667,7.33333333" id="Path" stroke="#008EE9" stroke-width="2" stroke-linecap="round" stroke-linejoin="round"></path>
            <line x1="7.33333333" y1="14.6666667" x2="11" y2="14.6666667" id="Path" stroke="#008EE9" stroke-width="2" stroke-linecap="round" stroke-linejoin="round"></line>
            <line x1="7.33333333" y1="22" x2="12.8333333" y2="22" id="Path" stroke="#008EE9" stroke-width="2" stroke-linecap="round" stroke-linejoin="round"></line>
            <line x1="7.33333333" y1="29.3333333" x2="11" y2="29.3333333" id="Path" stroke="#008EE9" stroke-width="2" stroke-linecap="round" stroke-linejoin="round"></line>
            <line x1="14.6666667" y1="7.33333333" x2="14.6666667" y2="11" id="Path" stroke="#008EE9" stroke-width="2" stroke-linecap="round" stroke-linejoin="round"></line>
            <line x1="22" y1="7.33333333" x2="22" y2="12.8333333" id="Path" stroke="#008EE9" stroke-width="2" stroke-linecap="round" stroke-linejoin="round"></line>
            <line x1="29.3333333" y1="7.33333333" x2="29.3333333" y2="11" id="Path" stroke="#008EE9" stroke-width="2" stroke-linecap="round" stroke-linejoin="round"></line>
        </g>
    </g>
</svg>