<?xml version="1.0" encoding="UTF-8"?>
<svg xmlns="http://www.w3.org/2000/svg" xmlns:xlink="http://www.w3.org/1999/xlink" width="110px" height="110px" viewBox="0 0 110 110" version="1.1">
  <title>Accreditations/Safecontractor</title>
  <defs>
    <path d="M51.678,103.356 C23.144,103.356 0,80.234 0,51.678 C0,23.144 23.122,0 51.678,0 C80.212,0 103.356,23.144 103.356,51.678 C103.356,80.212 80.212,103.356 51.678,103.356" id="path-1"></path>
  </defs>
  <g id="Accreditations/Safecontractor" stroke="none" stroke-width="1" fill="none" fill-rule="evenodd">
    <g id="safecontractor-approved-logo-vector">
      <path d="M55,106.678 C26.466,106.678 3.322,83.556 3.322,55 C3.322,26.466 26.444,3.322 55,3.322 C83.534,3.322 106.678,26.466 106.678,55 C106.678,83.534 83.534,106.678 55,106.678" id="Path" fill="#000000" fill-rule="nonzero"></path>
      <path d="M55,8.052 C29.062,8.052 8.03,29.084 8.03,55.022 C8.03,59.246 8.602,63.338 9.636,67.254 L100.32,67.254 C101.376,63.36 101.926069,59.246 101.926069,55.022 C101.97,29.062 80.938,8.052 55,8.052" id="Path" fill="#FFFFFF" fill-rule="nonzero"></path>
      <path d="M24.178,91.806 C13.156,82.61 6.842,69.124 6.842,54.802 C6.842,41.932 11.858,29.854 20.944,20.746 C30.052,11.66 42.13,6.644 55,6.644 C67.87,6.644 79.97,11.66 89.056,20.746 C98.164,29.854 103.158,41.932 103.158,54.802 C103.158,69.124 96.844,82.632 85.822,91.806 L84.92,90.728 C95.612,81.818 101.75,68.706 101.75,54.802 C101.75,42.306 96.888,30.58 88.066,21.736 C79.244,12.914 67.496,8.052 55,8.052 C42.504,8.052 30.778,12.914 21.934,21.736 C13.112,30.558 8.25,42.306 8.25,54.802 C8.25,68.706 14.388,81.818 25.08,90.728 L24.178,91.806" id="Path" fill="#000000" fill-rule="nonzero"></path>
      <rect id="Rectangle" fill="#FFFFFF" fill-rule="nonzero" x="3.322" y="57.882" width="103.334" height="22.572"></rect>
      <g id="Rectangle" transform="translate(3.322000, 3.322000)">
        <mask id="mask-2" fill="white">
          <use xlink:href="#path-1"></use>
        </mask>
        <g id="Mask" fill-rule="nonzero"></g>
        <rect fill="#000000" fill-rule="nonzero" mask="url(#mask-2)" x="0" y="55.814" width="103.334" height="20.064"></rect>
      </g>
      <path d="M19.052,65.978 C18.502,65.736 17.908,65.604 17.292,65.604 C16.698,65.604 15.928,65.868 15.928,66.814 C15.928,68.31 19.712,67.672 19.712,70.576 C19.712,72.468 18.216,73.194 16.456,73.194 C15.51,73.194 15.092,73.062 14.234,72.864 L14.388,71.302 C14.982,71.632 15.664,71.83 16.346,71.83 C17.006,71.83 17.886,71.5 17.886,70.708 C17.886,69.058 14.102,69.74 14.102,66.88 C14.102,64.944 15.598,64.24 17.116,64.24 C17.864,64.24 18.546,64.35 19.184,64.548 L19.052,65.978" id="Path" fill="#FFFFFF" fill-rule="nonzero"></path>
      <path d="M21.098,66.99 C21.736,66.682 22.616,66.506 23.32,66.506 C25.256,66.506 26.07,67.32 26.07,69.19 L26.07,70.004 C26.07,70.642 26.092,71.126 26.092,71.61 C26.114,72.094 26.136,72.534 26.158,73.04 L24.706,73.04 C24.64,72.71 24.64,72.292 24.64,72.094 L24.618,72.094 C24.244,72.798 23.408,73.194 22.66,73.194 C21.538,73.194 20.438,72.512 20.438,71.302 C20.438,70.356 20.9,69.784 21.538,69.476 C22.176,69.168 22.99,69.102 23.672,69.102 L24.596,69.102 C24.596,68.068 24.134,67.716 23.166,67.716 C22.462,67.716 21.758,67.98 21.186,68.42 L21.098,66.99 M23.056,71.984 C23.562,71.984 23.958,71.764 24.222,71.412 C24.486,71.06 24.574,70.598 24.574,70.092 L23.848,70.092 C23.1,70.092 22,70.224 22,71.192 C22,71.742 22.462,71.984 23.056,71.984 Z" id="Shape" fill="#FFFFFF" fill-rule="nonzero"></path>
      <path d="M28.006,67.87 L26.774,67.87 L26.774,66.66 L28.006,66.66 L28.006,65.758 C28.006,64.482 28.732,63.58 30.03,63.58 C30.448,63.58 30.932,63.646 31.24,63.712 L31.108,65.098 C30.954,65.01 30.756,64.878 30.382,64.878 C29.832,64.878 29.656,65.362 29.656,65.846 L29.656,66.638 L31.108,66.638 L31.108,67.848 L29.656,67.848 L29.656,73.018 L28.006,73.018 L28.006,67.87" id="Path" fill="#FFFFFF" fill-rule="nonzero"></path>
      <path d="M37.026,72.688 C36.41,73.018 35.728,73.194 34.826,73.194 C32.714,73.194 31.504,71.984 31.504,69.894 C31.504,68.046 32.472,66.528 34.474,66.528 C36.85,66.528 37.51,68.156 37.51,70.378 L33.11,70.378 C33.176,71.412 33.902,71.984 34.936,71.984 C35.75,71.984 36.432,71.676 37.048,71.346 L37.048,72.688 M35.904,69.234 C35.86,68.42 35.486,67.738 34.562,67.738 C33.638,67.738 33.154,68.376 33.088,69.234 L35.904,69.234 Z" id="Shape" fill="#FFFFFF" fill-rule="nonzero"></path>
      <path d="M44.924,72.93 C44.286,73.084 43.604,73.194 42.944,73.194 C40.15,73.194 38.192,71.786 38.192,68.86 C38.192,65.89 39.996,64.24 42.944,64.24 C43.516,64.24 44.264,64.35 44.902,64.592 L44.77,66.066 C44.11,65.692 43.516,65.604 42.9,65.604 C41.118,65.604 39.996,66.968 39.996,68.728 C39.996,70.488 41.096,71.808 42.922,71.808 C43.604,71.808 44.418,71.654 44.814,71.456 L44.924,72.93" id="Path" fill="#FFFFFF" fill-rule="nonzero"></path>
      <path d="M48.664,66.506 C50.556,66.506 52.008,67.782 52.008,69.894 C52.008,71.72 50.776,73.194 48.664,73.194 C46.552,73.194 45.342,71.72 45.342,69.894 C45.342,67.782 46.794,66.506 48.664,66.506 M48.664,71.896 C49.94,71.896 50.27,70.752 50.27,69.696 C50.27,68.728 49.742,67.804 48.664,67.804 C47.586,67.804 47.058,68.75 47.058,69.696 C47.08,70.752 47.41,71.896 48.664,71.896 Z" id="Shape" fill="#FFFFFF" fill-rule="nonzero"></path>
      <path d="M52.998,66.66 L54.582,66.66 L54.582,67.518 L54.604,67.518 C55.132,66.792 55.836,66.506 56.694,66.506 C58.212,66.506 58.872,67.562 58.872,69.014 L58.872,73.04 L57.222,73.04 L57.222,69.63 C57.222,68.86 57.2,67.804 56.144,67.804 C54.934,67.804 54.692,69.102 54.692,69.916 L54.692,73.04 L53.042,73.04 L53.042,66.66" id="Path" fill="#FFFFFF" fill-rule="nonzero"></path>
      <path d="M60.808,67.87 L59.576,67.87 L59.576,66.66 L60.808,66.66 L60.808,65.384 L62.458,64.856 L62.458,66.66 L63.932,66.66 L63.932,67.87 L62.458,67.87 L62.458,70.84 C62.458,71.39 62.612,71.896 63.228,71.896 C63.536,71.896 63.822,71.83 63.976,71.72 L64.02,73.04 C63.668,73.15 63.294,73.194 62.788,73.194 C61.49,73.194 60.764,72.38 60.764,71.126 L60.764,67.87" id="Path" fill="#FFFFFF" fill-rule="nonzero"></path>
      <path d="M64.812,66.66 L66.286,66.66 L66.286,68.112 L66.308,68.112 C66.374,67.518 67.056,66.506 68.046,66.506 C68.2,66.506 68.376,66.506 68.552,66.55 L68.552,68.222 C68.398,68.134 68.112,68.09 67.804,68.09 C66.462,68.09 66.462,69.784 66.462,70.686 L66.462,73.018 L64.812,73.018 L64.812,66.66" id="Path" fill="#FFFFFF" fill-rule="nonzero"></path>
      <path d="M69.564,66.99 C70.202,66.682 71.082,66.506 71.786,66.506 C73.722,66.506 74.536,67.32 74.536,69.19 L74.536,70.004 C74.536,70.642 74.558,71.126 74.558,71.61 C74.58,72.094 74.602,72.534 74.624,73.04 L73.172,73.04 C73.106,72.71 73.106,72.292 73.106,72.094 L73.084,72.094 C72.71,72.798 71.874,73.194 71.126,73.194 C70.004,73.194 68.904,72.512 68.904,71.302 C68.904,70.356 69.366,69.784 70.004,69.476 C70.642,69.168 71.456,69.102 72.138,69.102 L73.062,69.102 C73.062,68.068 72.6,67.716 71.632,67.716 C70.928,67.716 70.224,67.98 69.652,68.42 L69.564,66.99 M71.522,71.984 C72.028,71.984 72.424,71.764 72.688,71.412 C72.952,71.06 73.04,70.598 73.04,70.092 L72.314,70.092 C71.566,70.092 70.466,70.224 70.466,71.192 C70.466,71.742 70.928,71.984 71.522,71.984 Z" id="Shape" fill="#FFFFFF" fill-rule="nonzero"></path>
      <path d="M79.992,68.046 C79.684,67.914 79.376,67.804 78.87,67.804 C77.836,67.804 77.176,68.618 77.176,69.828 C77.176,71.016 77.726,71.918 78.892,71.918 C79.354,71.918 79.882,71.742 80.168,71.632 L80.234,72.996 C79.75,73.15 79.266,73.216 78.584,73.216 C76.494,73.216 75.438,71.786 75.438,69.85 C75.438,68.002 76.538,66.55 78.518,66.55 C79.178,66.55 79.662,66.616 80.124,66.77 L79.992,68.046" id="Path" fill="#FFFFFF" fill-rule="nonzero"></path>
      <path d="M81.598,67.87 L80.366,67.87 L80.366,66.66 L81.598,66.66 L81.598,65.384 L83.248,64.856 L83.248,66.66 L84.722,66.66 L84.722,67.87 L83.248,67.87 L83.248,70.84 C83.248,71.39 83.402,71.896 84.018,71.896 C84.326,71.896 84.612,71.83 84.766,71.72 L84.81,73.04 C84.458,73.15 84.084,73.194 83.578,73.194 C82.28,73.194 81.554,72.38 81.554,71.126 L81.554,67.87" id="Path" fill="#FFFFFF" fill-rule="nonzero"></path>
      <path d="M88.484,66.506 C90.376,66.506 91.828,67.782 91.828,69.894 C91.828,71.72 90.596,73.194 88.484,73.194 C86.372,73.194 85.162,71.72 85.162,69.894 C85.162,67.782 86.592,66.506 88.484,66.506 M88.484,71.896 C89.76,71.896 90.09,70.752 90.09,69.696 C90.09,68.728 89.562,67.804 88.484,67.804 C87.406,67.804 86.878,68.75 86.878,69.696 C86.878,70.752 87.23,71.896 88.484,71.896 Z" id="Shape" fill="#FFFFFF" fill-rule="nonzero"></path>
      <path d="M92.862,66.66 L94.336,66.66 L94.336,68.112 L94.358,68.112 C94.424,67.518 95.106,66.506 96.096,66.506 C96.25,66.506 96.426,66.506 96.602,66.55 L96.602,68.222 C96.448,68.134 96.162,68.09 95.854,68.09 C94.512,68.09 94.512,69.784 94.512,70.686 L94.512,73.018 L92.862,73.018 L92.862,66.66" id="Path" fill="#FFFFFF" fill-rule="nonzero"></path>
      <polyline id="Path" fill="#FFFFFF" fill-rule="nonzero" points="28.358 91.916 29.062 92.4 28.446 94.05 28.468 94.05 29.744 92.84 30.58 93.368 29.986 95.04 29.986 95.062 31.24 93.808 31.922 94.248 29.986 95.854 29.194 95.326 29.788 93.654 29.788 93.654 28.446 94.864 27.654 94.336 28.358 91.916"></polyline>
      <polyline id="Path" fill="#FFFFFF" fill-rule="nonzero" points="31.922 94.248 32.67 94.644 32.208 96.36 32.23 96.36 33.396 95.04 34.276 95.502 33.836 97.218 33.836 97.218 34.98 95.876 35.684 96.25 33.924 98.01 33.066 97.57 33.506 95.854 33.506 95.854 32.296 97.174 31.438 96.712 31.922 94.248"></polyline>
      <polyline id="Path" fill="#FFFFFF" fill-rule="nonzero" points="35.684 96.228 36.476 96.558 36.19 98.318 36.19 98.318 37.224 96.888 38.148 97.262 37.862 99 37.884 99.022 38.874 97.57 39.622 97.856 38.038 99.814 37.136 99.44 37.422 97.68 37.422 97.68 36.344 99.11 35.442 98.736 35.684 96.228"></polyline>
      <polyline id="Path" fill="#FFFFFF" fill-rule="nonzero" points="39.116 99.396 39.864 99.66 39.622 100.364 38.874 100.1 39.116 99.396"></polyline>
      <path d="M41.69,101.002 C41.734,100.87 41.734,100.76 41.778,100.628 L41.778,100.628 C41.514,100.87 41.25,100.914 40.92,100.826 C40.458,100.694 40.128,100.342 40.282,99.836 C40.502,99.132 41.272,99.286 41.712,99.396 C41.844,99.44 41.976,99.484 42.064,99.528 C42.152,99.22 41.954,99.066 41.646,98.978 C41.382,98.912 41.118,98.868 40.854,98.934 L41.008,98.384 C41.316,98.362 41.646,98.384 41.976,98.494 C42.57,98.67 42.988,99.066 42.79,99.77 L42.526,100.628 C42.482,100.804 42.416,101.002 42.416,101.178 L41.69,101.002 M41.294,100.364 C41.602,100.452 41.866,100.232 41.954,99.968 C41.844,99.924 41.734,99.88 41.624,99.858 C41.36,99.77 41.118,99.792 41.052,100.012 C40.986,100.188 41.118,100.32 41.294,100.364 Z" id="Shape" fill="#FFFFFF" fill-rule="nonzero"></path>
      <polyline id="Path" fill="#FFFFFF" fill-rule="nonzero" points="43.868 98.032 44.682 98.23 43.846 101.574 43.032 101.376 43.868 98.032"></polyline>
      <path d="M46.662,100.43 C46.53,100.32 46.398,100.232 46.2,100.188 C45.848,100.122 45.518,100.298 45.452,100.716 C45.386,101.09 45.65,101.398 46.002,101.464 C46.178,101.508 46.376,101.508 46.53,101.464 L46.42,102.08 C46.2,102.102 45.958,102.102 45.738,102.036 C44.968,101.882 44.462,101.31 44.616,100.54 C44.77,99.748 45.452,99.44 46.244,99.594 C46.486,99.638 46.706,99.726 46.86,99.858 L46.662,100.43" id="Path" fill="#FFFFFF" fill-rule="nonzero"></path>
      <path d="M49.324,102.564 L48.576,102.454 L48.642,102.014 L48.642,102.014 C48.422,102.322 48.07,102.432 47.696,102.388 C47.058,102.3 46.86,101.794 46.926,101.31 L47.146,99.836 L47.96,99.946 L47.784,101.09 C47.718,101.53 47.85,101.706 48.07,101.75 C48.4,101.794 48.62,101.596 48.686,101.09 L48.84,100.078 L49.654,100.188 L49.324,102.564" id="Path" fill="#FFFFFF" fill-rule="nonzero"></path>
      <path d="M50.094,100.254 L50.842,100.298 L50.82,100.738 L50.82,100.738 C50.996,100.408 51.348,100.276 51.722,100.298 C52.052,100.32 52.338,100.474 52.448,100.804 C52.668,100.496 52.976,100.386 53.328,100.408 C54.01,100.452 54.142,100.848 54.12,101.508 L54.032,102.916 L53.196,102.872 L53.284,101.574 C53.306,101.31 53.218,101.09 52.976,101.09 C52.69,101.068 52.492,101.288 52.47,101.816 L52.404,102.828 L51.568,102.784 L51.656,101.486 C51.678,101.222 51.59,101.002 51.348,101.002 C51.062,100.98 50.864,101.2 50.842,101.728 L50.776,102.74 L49.94,102.696 L50.094,100.254" id="Path" fill="#FFFFFF" fill-rule="nonzero"></path>
      <path d="M57.2,102.85 L56.452,102.872 L56.452,102.432 L56.452,102.432 C56.298,102.784 55.968,102.938 55.594,102.938 C54.934,102.96 54.67,102.498 54.67,101.992 L54.648,100.496 L55.484,100.474 L55.506,101.64 C55.506,102.102 55.682,102.234 55.902,102.234 C56.232,102.234 56.408,101.992 56.408,101.464 L56.386,100.452 L57.222,100.43 L57.2,102.85" id="Path" fill="#FFFFFF" fill-rule="nonzero"></path>
      <path d="M57.684,102.146 C57.882,102.212 58.168,102.278 58.476,102.256 C58.652,102.234 58.806,102.212 58.806,102.036 C58.784,101.64 57.618,102.014 57.552,101.134 C57.508,100.584 58.036,100.32 58.52,100.276 C58.806,100.254 59.092,100.254 59.378,100.342 L59.356,100.914 C59.18,100.826 58.916,100.782 58.696,100.804 C58.52,100.826 58.322,100.87 58.322,101.002 C58.344,101.376 59.554,100.98 59.62,101.904 C59.664,102.542 59.114,102.74 58.564,102.784 C58.19,102.806 57.926,102.784 57.684,102.74 L57.684,102.146" id="Path" fill="#FFFFFF" fill-rule="nonzero"></path>
      <path d="M62.612,102.014 C62.744,102.982 62.304,103.378 61.358,103.488 C60.962,103.532 60.632,103.51 60.434,103.466 L60.39,102.806 C60.654,102.894 60.874,102.938 61.226,102.894 C61.71,102.828 61.93,102.564 61.864,102.102 L61.842,101.97 L61.842,101.97 C61.688,102.278 61.424,102.432 61.094,102.476 C60.434,102.564 59.972,102.124 59.884,101.42 C59.796,100.716 60.06,100.144 60.786,100.034 C61.138,99.99 61.446,100.144 61.666,100.408 L61.666,100.408 L61.6,99.968 L62.348,99.858 L62.612,102.014 M61.248,101.838 C61.534,101.794 61.732,101.53 61.688,101.156 C61.644,100.892 61.468,100.606 61.094,100.672 C60.786,100.716 60.654,101.002 60.698,101.332 C60.742,101.684 61.006,101.86 61.248,101.838 Z" id="Shape" fill="#FFFFFF" fill-rule="nonzero"></path>
      <path d="M64.592,100.144 C64.504,100.144 64.416,100.144 64.306,100.166 C63.932,100.232 63.756,100.562 63.844,101.024 L64.042,102.014 L63.228,102.168 L62.788,99.814 L63.536,99.682 L63.624,100.122 L63.624,100.122 C63.712,99.792 63.866,99.572 64.218,99.506 C64.306,99.484 64.416,99.484 64.504,99.484 L64.592,100.144" id="Path" fill="#FFFFFF" fill-rule="nonzero"></path>
      <path d="M64.812,100.672 C64.614,99.902 65.098,99.308 65.868,99.11 C66.638,98.912 67.342,99.22 67.518,99.99 C67.716,100.76 67.232,101.354 66.462,101.53 C65.714,101.75 65.01,101.442 64.812,100.672 M66.704,100.21 C66.616,99.858 66.396,99.594 66.022,99.682 C65.648,99.77 65.582,100.122 65.67,100.474 C65.758,100.826 65.978,101.09 66.352,101.002 C66.704,100.892 66.792,100.562 66.704,100.21 Z" id="Shape" fill="#FFFFFF" fill-rule="nonzero"></path>
      <path d="M70.708,100.254 L69.982,100.474 L69.85,100.056 L69.85,100.056 C69.806,100.43 69.52,100.672 69.168,100.804 C68.552,101.002 68.156,100.65 68.002,100.166 L67.54,98.736 L68.332,98.494 L68.684,99.594 C68.816,100.034 69.014,100.122 69.234,100.056 C69.564,99.946 69.652,99.682 69.498,99.176 L69.19,98.208 L69.982,97.966 L70.708,100.254" id="Path" fill="#FFFFFF" fill-rule="nonzero"></path>
      <path d="M70.4,97.834 L71.104,97.548 L71.258,97.944 L71.258,97.944 C71.28,97.57 71.566,97.306 71.918,97.174 C72.534,96.932 73.106,97.394 73.304,97.922 C73.568,98.582 73.414,99.264 72.754,99.528 C72.49,99.638 72.16,99.638 71.896,99.44 L71.896,99.44 L72.38,100.65 L71.61,100.958 L70.4,97.834 M71.852,97.878 C71.566,97.988 71.478,98.318 71.61,98.648 C71.742,98.978 72.0499922,99.132 72.314,99.044 C72.6,98.934 72.688,98.626 72.556,98.252 C72.424,97.966 72.138,97.768 71.852,97.878 Z" id="Shape" fill="#FFFFFF" fill-rule="nonzero"></path>
      <polyline id="Path" fill="#FFFFFF" fill-rule="nonzero" points="73.92 98.186 74.624 97.856 74.932 98.538 74.228 98.868 73.92 98.186"></polyline>
      <path d="M76.406,95.92 C76.23,95.898 76.076,95.942 75.9,96.03 C75.57,96.184 75.438,96.536 75.636,96.91 C75.812,97.262 76.208,97.328 76.538,97.174 C76.714,97.086 76.868,96.976 76.956,96.844 L77.242,97.394 C77.088,97.548 76.89,97.702 76.692,97.79 C75.988,98.142 75.24,98.01 74.888,97.284 C74.536,96.58 74.866,95.898 75.57,95.546 C75.79,95.436 76.01,95.37 76.23,95.37 L76.406,95.92" id="Path" fill="#FFFFFF" fill-rule="nonzero"></path>
      <path d="M76.912,96.25 C76.516,95.568 76.802,94.864 77.506,94.468 C78.188,94.072 78.958,94.182 79.332,94.864 C79.728,95.546 79.42,96.25 78.738,96.646 C78.056,97.042 77.308,96.932 76.912,96.25 M78.584,95.282 C78.408,94.974 78.122,94.776 77.77,94.952 C77.44,95.15 77.462,95.502 77.638,95.81 C77.814,96.118 78.1,96.316 78.43,96.118 C78.782,95.942 78.76,95.59 78.584,95.282 Z" id="Shape" fill="#FFFFFF" fill-rule="nonzero"></path>
      <path d="M79.024,93.676 L79.64,93.258 L79.882,93.632 L79.882,93.632 C79.816,93.258 80.014,92.95 80.322,92.73 C80.608,92.532 80.916,92.488 81.202,92.686 C81.18,92.312 81.356,92.026 81.642,91.828 C82.214,91.432 82.566,91.674 82.94,92.202 L83.732,93.368 L83.072,93.808 L82.346,92.752 C82.192,92.532 81.994,92.422 81.796,92.554 C81.554,92.73 81.532,93.016 81.84,93.434 L82.412,94.27 L81.73,94.732 L81.004,93.676 C80.85,93.456 80.652,93.346 80.454,93.478 C80.212,93.654 80.212,93.94 80.498,94.358 L81.07,95.194 L80.388,95.656 L79.024,93.676" id="Path" fill="#FFFFFF" fill-rule="nonzero"></path>
      <path d="M55,110 C40.304,110 26.488,104.28 16.104,93.896 C5.72,83.512 0,69.696 0,55 C0,40.304 5.72,26.488 16.104,16.104 C26.488,5.72 40.304,0 55,0 C69.696,0 83.512,5.72 93.896,16.104 C104.28,26.488 110,40.304 110,55 C110,69.696 104.28,83.512 93.896,93.896 C83.512,104.28 69.696,110 55,110 M55,1.958 C40.832,1.958 27.5,7.48 17.49,17.49 C7.48,27.5 1.958,40.832 1.958,55 C1.958,69.168 7.48,82.5 17.49,92.51 C27.522,102.542 40.832,108.042 55,108.042 C69.168,108.042 82.5,102.52 92.51,92.51 C102.52,82.5 108.042,69.168 108.042,55 C108.042,40.832 102.52,27.5 92.51,17.49 C82.5,7.458 69.168,1.958 55,1.958 Z" id="Shape" fill="#000000" fill-rule="nonzero"></path>
      <path d="M34.76,84.348 L36.674,84.348 L38.94,90.222 L37.224,90.222 L36.784,88.968 L34.584,88.968 L34.122,90.222 L32.538,90.222 L34.76,84.348 M35.728,85.558 L35.728,85.558 L34.958,87.868 L36.432,87.868 L35.728,85.558 Z" id="Shape" fill="#FFFFFF" fill-rule="nonzero"></path>
      <path d="M39.27,84.348 L41.14,84.348 C42.944,84.348 43.78,84.964 43.78,86.284 C43.78,87.472 42.9,88.176 41.448,88.176 L40.832,88.176 L40.832,90.244 L39.27,90.244 L39.27,84.348 M40.832,87.054 L41.228,87.054 C41.756,87.054 42.196,86.856 42.196,86.24 C42.196,85.646 41.756,85.448 41.228,85.448 L40.832,85.448 L40.832,87.054 Z" id="Shape" fill="#FFFFFF" fill-rule="nonzero"></path>
      <path d="M44.22,84.348 L46.09,84.348 C47.894,84.348 48.73,84.964 48.73,86.284 C48.73,87.472 47.872,88.176 46.398,88.176 L45.782,88.176 L45.782,90.244 L44.22,90.244 L44.22,84.348 M45.782,87.054 L46.178,87.054 C46.706,87.054 47.146,86.856 47.146,86.24 C47.146,85.646 46.706,85.448 46.178,85.448 L45.782,85.448 L45.782,87.054 Z" id="Shape" fill="#FFFFFF" fill-rule="nonzero"></path>
      <path d="M49.192,84.348 L51.986,84.348 C53.02,84.348 53.878,84.81 53.878,85.822 C53.878,86.614 53.504,87.12 52.756,87.296 L52.756,87.318 C53.262,87.45 53.284,87.89 53.592,88.616 L54.164,90.222 L52.536,90.222 L52.206,89.166 C51.876,88.154 51.678,87.912 51.106,87.912 L50.776,87.912 L50.776,90.244 L49.192,90.244 L49.192,84.348 M50.776,86.79 L51.194,86.79 C51.7,86.79 52.338,86.768 52.338,86.108 C52.338,85.558 51.788,85.448 51.194,85.448 L50.776,85.448 L50.776,86.79 Z" id="Shape" fill="#FFFFFF" fill-rule="nonzero"></path>
      <path d="M57.376,84.238 C59.312,84.238 60.324,85.382 60.324,87.274 C60.324,89.144 59.29,90.31 57.376,90.31 C55.462,90.31 54.428,89.144 54.428,87.274 C54.428,85.404 55.44,84.238 57.376,84.238 M57.376,89.166 C58.322,89.166 58.718,88.264 58.718,87.296 C58.718,86.284 58.344,85.404 57.376,85.404 C56.43,85.404 56.034,86.262 56.034,87.296 C56.056,88.264 56.43,89.166 57.376,89.166 Z" id="Shape" fill="#FFFFFF" fill-rule="nonzero"></path>
      <polyline id="Path" fill="#FFFFFF" fill-rule="nonzero" points="60.324 84.348 61.996 84.348 63.316 88.968 63.316 88.968 64.636 84.348 66.242 84.348 64.24 90.222 62.304 90.222 60.324 84.348"></polyline>
      <polyline id="Path" fill="#FFFFFF" fill-rule="nonzero" points="66.748 84.348 70.906 84.348 70.906 85.47 68.332 85.47 68.332 86.68 70.752 86.68 70.752 87.78 68.332 87.78 68.332 89.122 70.994 89.122 70.994 90.222 66.748 90.222 66.748 84.348"></polyline>
      <path d="M71.742,84.348 L73.876,84.348 C75.922,84.348 77.352,84.986 77.352,87.274 C77.352,89.474 75.878,90.244 73.876,90.244 L71.742,90.244 L71.742,84.348 M73.304,89.056 L73.92,89.056 C75.086,89.056 75.746,88.44 75.746,87.274 C75.746,86.108 75.064,85.492 73.92,85.492 L73.304,85.492 L73.304,89.056 Z" id="Shape" fill="#FFFFFF" fill-rule="nonzero"></path>
      <path d="M72.512,14.872 C73.304,14.872 73.942,15.51 73.942,16.302 C73.942,17.094 73.304,17.732 72.512,17.732 C71.72,17.732 71.082,17.094 71.082,16.302 C71.082,15.51 71.72,14.872 72.512,14.872 M72.512,17.512 C73.172,17.512 73.678,16.984 73.678,16.28 C73.678,15.576 73.172,15.07 72.512,15.07 C71.852,15.07 71.346,15.598 71.346,16.28 C71.346,16.962 71.852,17.512 72.512,17.512 Z M71.962,15.444 L72.6,15.444 C72.996,15.444 73.172,15.598 73.172,15.906 C73.172,16.17 72.996,16.368 72.732,16.368 L73.216,17.116 L72.93,17.116 L72.468,16.368 L72.248,16.368 L72.248,17.116 L71.984,17.116 L71.984,15.444 L71.962,15.444 Z M72.226,16.17 L72.556,16.17 C72.776,16.17 72.908,16.126 72.908,15.906 C72.908,15.708 72.732,15.664 72.556,15.664 L72.226,15.664 L72.226,16.17 Z" id="Shape" fill="#231815" fill-rule="nonzero"></path>
      <path d="M62.986,14.344 C57.728,14.916 56.496,11.748 56.496,11.748 C56.496,11.748 54.802,14.696 49.698,13.354 C49.698,13.354 46.354,23.496 49.962,26.532 C53.548,29.59 55.066,31.042 55.066,31.042 C55.066,31.042 56.782,29.832 60.786,27.346 C64.79,24.86 62.986,14.344 62.986,14.344 M50.93,25.542 C50.71,25.344 50.512,25.102 50.336,24.75 C50.072,24.244 49.896,23.562 49.808,22.792 C49.72,22 49.72,21.12 49.786,20.24 C49.896,18.634 50.226,17.006 50.534,15.774 C50.622,15.444 50.688,15.158 50.754,14.916 C51.04,14.96 51.326,15.004 51.612,15.026 C52.646,15.092 53.526,15.004 54.296,14.806 C53.328,17.886 52.25,23.32 54.428,28.578 C53.592,27.83 52.448,26.818 50.93,25.542 Z" id="Shape" fill="#000000" fill-rule="nonzero"></path>
      <path d="M49.676,26.642 C48.554,22.066 37.994,20.526 37.994,20.526 C36.916,25.696 33.528,25.894 33.528,25.894 C33.528,25.894 35.794,28.402 32.956,32.868 C32.956,32.868 41.558,39.182 45.562,36.696 C49.566,34.232 51.436,33.22 51.436,33.22 C51.436,33.22 50.798,31.218 49.676,26.642 M44.902,35.464 C44.638,35.618 44.352,35.728 43.978,35.794 C43.428,35.882 42.724,35.838 41.954,35.684 C41.184,35.53 40.348,35.244 39.534,34.914 C38.038,34.298 36.586,33.484 35.53,32.824 C35.244,32.648 35.002,32.494 34.782,32.34 C34.914,32.076 35.024,31.812 35.134,31.548 C35.53,30.602 35.706,29.722 35.772,28.93 C38.39,30.822 43.23,33.506 48.906,33.044 C47.916,33.638 46.618,34.43 44.902,35.464 Z" id="Shape" fill="#000000" fill-rule="nonzero"></path>
      <path d="M53.878,44.022 C52.756,39.446 52.382,37.378 52.382,37.378 C52.382,37.378 50.27,37.356 45.584,37.004 C40.876,36.674 36.168,46.222 36.168,46.222 C40.744,48.84 39.886,52.14 39.886,52.14 C39.886,52.14 42.988,50.754 46.332,54.846 C46.332,54.824 55,48.598 53.878,44.022 M52.536,45.232 C52.448,45.782 52.206,46.442 51.81,47.124 C51.414,47.806 50.908,48.51 50.336,49.192 C49.302,50.424 48.07,51.546 47.124,52.36 C46.882,52.58 46.64,52.756 46.442,52.932 C46.222,52.712 46.024,52.536 45.804,52.338 C45.012,51.678 44.242,51.216 43.516,50.93 C46.112,49.016 50.182,45.254 51.502,39.71 C51.744,40.788 52.074,42.284 52.558,44.22 C52.58,44.55 52.58,44.88 52.536,45.232 Z" id="Shape" fill="#000000" fill-rule="nonzero"></path>
      <path d="M71.368,48.884 C71.368,48.884 68.112,38.72 63.404,38.368 C58.696,38.016 56.628,37.73 56.628,37.73 C56.628,37.73 55.946,39.732 54.164,44.088 C52.382,48.444 60.038,55.902 60.038,55.902 C63.954,52.36 66.814,54.186 66.814,54.186 C66.814,54.186 66.44,50.798 71.368,48.884 M66.792,50.402 C65.78,47.344 63.448,42.306 58.586,39.358 C59.686,39.468 61.204,39.6 63.206,39.754 C63.514,39.776 63.822,39.864 64.152,40.04 C64.658,40.282 65.208,40.744 65.736,41.316 C66.264,41.888 66.792,42.614 67.254,43.362 C68.112,44.726 68.794,46.244 69.278,47.41 C69.41,47.718 69.52,48.004 69.608,48.246 C69.344,48.378 69.102,48.532 68.86,48.664 C67.98,49.192 67.298,49.808 66.792,50.402 Z" id="Shape" fill="#000000" fill-rule="nonzero"></path>
      <path d="M77.044,29.216 C77.044,29.216 73.722,28.512 73.414,23.2539827 C73.414,23.2539827 62.744,23.21 60.962,27.566 C59.18,31.922 58.256,33.814 58.256,33.814 C58.256,33.814 59.95,35.068 63.536,38.104 C67.144,41.14 76.582,36.168 76.582,36.168 C74.426,31.372 77.044,29.216 77.044,29.216 M60.412,32.45 C60.852,31.438 61.468,30.03 62.216,28.182 C62.326,27.896 62.502,27.632 62.766,27.368 C63.162,26.972 63.756,26.576 64.46,26.268 C65.164,25.938 66,25.674 66.88,25.454 C68.442,25.08 70.092,24.882 71.346,24.772 C71.676,24.75 71.984,24.728 72.248,24.706 C72.292,24.992 72.358,25.278 72.424,25.542 C72.666,26.532 73.04,27.368 73.458,28.028 C70.246,28.072 64.746,28.754 60.412,32.45 Z" id="Shape" fill="#000000" fill-rule="nonzero"></path>
    </g>
  </g>
</svg>
