<?xml version="1.0" encoding="UTF-8"?>
<svg xmlns="http://www.w3.org/2000/svg" xmlns:xlink="http://www.w3.org/1999/xlink" width="44px" height="44px" viewBox="0 0 44 44" version="1.1">
  <title>icon_line/thumbs_up</title>
  <g id="icon_line/thumbs_up" stroke="none" stroke-width="1" fill="none" fill-rule="evenodd" stroke-linecap="round" stroke-linejoin="round">
    <path d="M12.8333333,20.1666667 L12.8333333,34.8333333 C12.8333333,35.8458554 12.012522,36.6666667 11,36.6666667 L7.33333333,36.6666667 C6.32081129,36.6666667 5.5,35.8458554 5.5,34.8333333 L5.5,22 C5.5,20.987478 6.32081129,20.1666667 7.33333333,20.1666667 L12.8333333,20.1666667 C16.8834215,20.1666667 20.1666667,16.8834215 20.1666667,12.8333333 L20.1666667,11 C20.1666667,8.97495592 21.8082893,7.33333333 23.8333333,7.33333333 C25.8583774,7.33333333 27.5,8.97495592 27.5,11 L27.5,20.1666667 L33,20.1666667 C35.0250441,20.1666667 36.6666667,21.8082893 36.6666667,23.8333333 L34.8333333,33 C34.2916955,35.310475 32.7968196,36.8053508 31.1666667,36.6666667 L18.3333333,36.6666667 C15.2957672,36.6666667 12.8333333,34.2042328 12.8333333,31.1666667" id="Path" stroke="#008EE9" stroke-width="2"></path>
  </g>
</svg>
