<?xml version="1.0" encoding="UTF-8"?>
<svg width="44px" height="44px" viewBox="0 0 44 44" version="1.1" xmlns="http://www.w3.org/2000/svg" xmlns:xlink="http://www.w3.org/1999/xlink">
    <title>icon_line/bell-ringing</title>
    <g id="icon_line/bell-ringing" stroke="none" stroke-width="1" fill="none" fill-rule="evenodd">
        <g id="Group">
            <polygon id="Path" points="0 0 44 0 44 44 0 44"></polygon>
            <path d="M18.3333333,9.16666667 C18.3333333,7.14162258 19.9749559,5.5 22,5.5 C24.0250441,5.5 25.6666667,7.14162258 25.6666667,9.16666667 C29.9569776,11.1953482 32.7774905,15.4261175 33,20.1666667 L33,25.6666667 C33.2797933,27.9781267 34.640624,30.0193728 36.6666667,31.1666667 L7.33333333,31.1666667 C9.35937598,30.0193728 10.7202067,27.9781267 11,25.6666667 L11,20.1666667 C11.2225095,15.4261175 14.0430224,11.1953482 18.3333333,9.16666667" id="Path" stroke="#008EE9" stroke-width="2" stroke-linecap="round" stroke-linejoin="round"></path>
            <path d="M16.5,31.1666667 L16.5,33 C16.5,36.0375661 18.9624339,38.5 22,38.5 C25.0375661,38.5 27.5,36.0375661 27.5,33 L27.5,31.1666667" id="Path" stroke="#008EE9" stroke-width="2" stroke-linecap="round" stroke-linejoin="round"></path>
            <path d="M38.5,12.3328333 C37.2974551,9.71713029 35.5512187,7.38777336 33.3776667,5.5" id="Path" stroke="#008EE9" stroke-width="2" stroke-linecap="round" stroke-linejoin="round"></path>
            <path d="M5.5,12.3328333 C6.70147463,9.717473 8.44644067,7.38814332 10.6186667,5.5" id="Path" stroke="#008EE9" stroke-width="2" stroke-linecap="round" stroke-linejoin="round"></path>
        </g>
    </g>
</svg>