<?xml version="1.0" encoding="UTF-8"?>
<svg xmlns="http://www.w3.org/2000/svg" xmlns:xlink="http://www.w3.org/1999/xlink" width="44px" height="44px" viewBox="0 0 44 44" version="1.1">
  <title>icon_line/phone-call</title>
  <g id="icon_line/phone-call" stroke="none" stroke-width="1" fill="none" fill-rule="evenodd">
    <g id="Group">
      <polygon id="Path" points="0 0 44 0 44 44 0 44"></polygon>
      <path d="M9.16666667,7.33333333 L16.5,7.33333333 L20.1666667,16.5 L15.5833333,19.25 C17.5467567,23.2311395 20.7688605,26.4532433 24.75,28.4166667 L27.5,23.8333333 L36.6666667,27.5 L36.6666667,34.8333333 C36.6666667,36.8583774 35.0250441,38.5 33,38.5 C18.2006902,37.6006389 6.39936113,25.7993098 5.5,11 C5.5,8.97495592 7.14162258,7.33333333 9.16666667,7.33333333" id="Path" stroke="#008EE9" stroke-width="2" stroke-linecap="round" stroke-linejoin="round"></path>
      <path d="M27.5,12.8333333 C29.5250441,12.8333333 31.1666667,14.4749559 31.1666667,16.5" id="Path" stroke="#008EE9" stroke-width="2" stroke-linecap="round" stroke-linejoin="round"></path>
      <path d="M27.5,5.5 C33.5751322,5.5 38.5,10.4248678 38.5,16.5" id="Path" stroke="#008EE9" stroke-width="2" stroke-linecap="round" stroke-linejoin="round"></path>
    </g>
  </g>
</svg>
