<svg xmlns="http://www.w3.org/2000/svg" xmlns:xlink="http://www.w3.org/1999/xlink" width="500" zoomAndPan="magnify" viewBox="0 0 375 374.999991" height="500" preserveAspectRatio="xMidYMid meet" version="1.0"><defs><clipPath id="db6cfa4662"><path d="M 20 56.253906 L 355 56.253906 L 355 318.753906 L 20 318.753906 Z M 20 56.253906 " clip-rule="nonzero"/></clipPath></defs><g clip-path="url(#db6cfa4662)"><path fill="#008ee9" d="M 338.492188 151.464844 C 336.316406 151.46875 334.222656 151.054688 332.210938 150.222656 C 330.203125 149.390625 328.425781 148.203125 326.890625 146.664062 C 250.105469 69.871094 125.15625 69.871094 48.371094 146.664062 C 47.988281 147.039062 47.589844 147.394531 47.175781 147.734375 C 46.757812 148.070312 46.328125 148.386719 45.882812 148.679688 C 45.433594 148.976562 44.976562 149.25 44.5 149.5 C 44.027344 149.75 43.542969 149.976562 43.046875 150.179688 C 42.550781 150.378906 42.046875 150.558594 41.535156 150.710938 C 41.023438 150.863281 40.503906 150.992188 39.976562 151.09375 C 39.449219 151.199219 38.921875 151.273438 38.390625 151.324219 C 37.855469 151.375 37.320312 151.398438 36.785156 151.398438 C 36.25 151.398438 35.714844 151.371094 35.183594 151.316406 C 34.652344 151.261719 34.121094 151.179688 33.597656 151.074219 C 33.074219 150.96875 32.554688 150.839844 32.042969 150.683594 C 31.53125 150.527344 31.027344 150.34375 30.53125 150.140625 C 30.039062 149.933594 29.554688 149.703125 29.082031 149.453125 C 28.609375 149.199219 28.152344 148.921875 27.707031 148.625 C 27.261719 148.328125 26.832031 148.007812 26.417969 147.667969 C 26.003906 147.328125 25.609375 146.96875 25.230469 146.589844 C 24.851562 146.210938 24.492188 145.816406 24.152344 145.402344 C 23.8125 144.988281 23.496094 144.558594 23.195312 144.113281 C 22.898438 143.667969 22.625 143.210938 22.371094 142.738281 C 22.117188 142.265625 21.886719 141.785156 21.683594 141.289062 C 21.476562 140.796875 21.296875 140.292969 21.140625 139.78125 C 20.984375 139.269531 20.851562 138.75 20.746094 138.226562 C 20.640625 137.699219 20.5625 137.171875 20.507812 136.636719 C 20.453125 136.105469 20.425781 135.570312 20.421875 135.035156 C 20.421875 134.5 20.445312 133.964844 20.496094 133.433594 C 20.546875 132.898438 20.625 132.371094 20.726562 131.84375 C 20.828125 131.320312 20.957031 130.800781 21.109375 130.289062 C 21.261719 129.773438 21.441406 129.269531 21.644531 128.773438 C 21.847656 128.277344 22.074219 127.792969 22.324219 127.320312 C 22.574219 126.847656 22.84375 126.386719 23.140625 125.941406 C 23.4375 125.492188 23.753906 125.0625 24.089844 124.644531 C 24.425781 124.230469 24.785156 123.832031 25.160156 123.453125 C 68.53125 80.121094 126.195312 56.253906 187.628906 56.253906 C 249.066406 56.253906 306.765625 80.121094 350.101562 123.453125 C 350.671875 124.023438 351.199219 124.632812 351.679688 125.28125 C 352.160156 125.929688 352.589844 126.609375 352.96875 127.320312 C 353.351562 128.03125 353.675781 128.769531 353.949219 129.527344 C 354.21875 130.289062 354.433594 131.0625 354.589844 131.855469 C 354.75 132.648438 354.847656 133.445312 354.886719 134.25 C 354.925781 135.058594 354.90625 135.863281 354.828125 136.664062 C 354.746094 137.46875 354.609375 138.261719 354.414062 139.042969 C 354.21875 139.828125 353.964844 140.589844 353.65625 141.335938 C 353.347656 142.082031 352.984375 142.800781 352.570312 143.492188 C 352.15625 144.183594 351.691406 144.84375 351.179688 145.46875 C 350.667969 146.089844 350.113281 146.671875 349.515625 147.214844 C 348.914062 147.757812 348.28125 148.253906 347.609375 148.699219 C 346.9375 149.148438 346.238281 149.546875 345.507812 149.890625 C 344.78125 150.234375 344.027344 150.527344 343.257812 150.761719 C 342.484375 150.992188 341.699219 151.171875 340.902344 151.289062 C 340.101562 151.40625 339.300781 151.464844 338.492188 151.464844 Z M 303.699219 193.078125 C 304.078125 192.699219 304.441406 192.300781 304.78125 191.882812 C 305.121094 191.46875 305.441406 191.039062 305.742188 190.589844 C 306.039062 190.144531 306.316406 189.683594 306.570312 189.210938 C 306.820312 188.734375 307.050781 188.25 307.257812 187.753906 C 307.464844 187.257812 307.644531 186.75 307.800781 186.238281 C 307.957031 185.722656 308.085938 185.203125 308.191406 184.675781 C 308.296875 184.148438 308.375 183.617188 308.425781 183.082031 C 308.480469 182.546875 308.507812 182.011719 308.507812 181.472656 C 308.507812 180.933594 308.480469 180.398438 308.425781 179.863281 C 308.375 179.328125 308.296875 178.796875 308.191406 178.269531 C 308.085938 177.742188 307.957031 177.222656 307.800781 176.707031 C 307.644531 176.195312 307.464844 175.6875 307.257812 175.191406 C 307.050781 174.695312 306.820312 174.210938 306.570312 173.734375 C 306.316406 173.261719 306.039062 172.800781 305.742188 172.355469 C 305.441406 171.90625 305.121094 171.476562 304.78125 171.058594 C 304.441406 170.644531 304.078125 170.246094 303.699219 169.867188 C 239.707031 105.878906 135.59375 105.878906 71.601562 169.867188 C 71.226562 170.246094 70.867188 170.644531 70.53125 171.0625 C 70.195312 171.476562 69.878906 171.910156 69.582031 172.355469 C 69.289062 172.804688 69.015625 173.261719 68.765625 173.738281 C 68.515625 174.210938 68.289062 174.695312 68.085938 175.191406 C 67.882812 175.6875 67.707031 176.191406 67.550781 176.703125 C 67.398438 177.214844 67.269531 177.734375 67.167969 178.261719 C 67.066406 178.785156 66.988281 179.316406 66.9375 179.847656 C 66.890625 180.382812 66.863281 180.917969 66.867188 181.453125 C 66.867188 181.988281 66.894531 182.519531 66.949219 183.054688 C 67.003906 183.585938 67.082031 184.117188 67.1875 184.640625 C 67.292969 185.164062 67.425781 185.683594 67.582031 186.195312 C 67.738281 186.707031 67.917969 187.210938 68.125 187.707031 C 68.332031 188.199219 68.558594 188.683594 68.8125 189.15625 C 69.066406 189.625 69.339844 190.085938 69.640625 190.53125 C 69.9375 190.976562 70.253906 191.40625 70.59375 191.816406 C 70.933594 192.230469 71.292969 192.628906 71.671875 193.007812 C 72.050781 193.386719 72.449219 193.746094 72.863281 194.085938 C 73.277344 194.425781 73.703125 194.742188 74.148438 195.039062 C 74.59375 195.339844 75.054688 195.613281 75.523438 195.867188 C 75.996094 196.121094 76.480469 196.347656 76.972656 196.554688 C 77.46875 196.761719 77.972656 196.941406 78.484375 197.097656 C 78.996094 197.253906 79.515625 197.386719 80.039062 197.492188 C 80.566406 197.597656 81.09375 197.675781 81.625 197.730469 C 82.160156 197.785156 82.691406 197.8125 83.226562 197.8125 C 83.765625 197.816406 84.296875 197.792969 84.832031 197.742188 C 85.363281 197.691406 85.894531 197.613281 86.417969 197.511719 C 86.945312 197.410156 87.464844 197.28125 87.976562 197.128906 C 88.488281 196.972656 88.996094 196.796875 89.488281 196.59375 C 89.984375 196.390625 90.46875 196.164062 90.945312 195.914062 C 91.417969 195.664062 91.878906 195.390625 92.324219 195.097656 C 92.769531 194.800781 93.203125 194.484375 93.617188 194.148438 C 94.035156 193.8125 94.433594 193.453125 94.8125 193.078125 C 146.007812 141.886719 229.300781 141.886719 280.488281 193.078125 C 280.867188 193.457031 281.265625 193.820312 281.683594 194.160156 C 282.097656 194.5 282.527344 194.820312 282.976562 195.121094 C 283.421875 195.417969 283.882812 195.695312 284.355469 195.949219 C 284.832031 196.203125 285.316406 196.433594 285.8125 196.636719 C 286.308594 196.84375 286.816406 197.023438 287.328125 197.179688 C 287.84375 197.335938 288.363281 197.46875 288.890625 197.570312 C 289.417969 197.675781 289.949219 197.757812 290.484375 197.808594 C 291.019531 197.863281 291.554688 197.886719 292.09375 197.886719 C 292.632812 197.886719 293.167969 197.863281 293.703125 197.808594 C 294.238281 197.757812 294.769531 197.675781 295.296875 197.570312 C 295.824219 197.46875 296.34375 197.335938 296.859375 197.179688 C 297.375 197.023438 297.878906 196.84375 298.375 196.636719 C 298.871094 196.433594 299.359375 196.203125 299.832031 195.949219 C 300.304688 195.695312 300.765625 195.417969 301.214844 195.121094 C 301.660156 194.820312 302.089844 194.5 302.507812 194.160156 C 302.921875 193.820312 303.320312 193.457031 303.699219 193.078125 Z M 257.277344 239.5 C 257.65625 239.121094 258.019531 238.722656 258.359375 238.308594 C 258.699219 237.890625 259.019531 237.460938 259.320312 237.011719 C 259.617188 236.566406 259.894531 236.105469 260.148438 235.632812 C 260.398438 235.15625 260.628906 234.671875 260.835938 234.175781 C 261.039062 233.679688 261.222656 233.171875 261.378906 232.660156 C 261.535156 232.144531 261.664062 231.625 261.769531 231.097656 C 261.875 230.570312 261.953125 230.039062 262.003906 229.503906 C 262.058594 228.96875 262.085938 228.433594 262.085938 227.894531 C 262.085938 227.355469 262.058594 226.820312 262.003906 226.285156 C 261.953125 225.75 261.875 225.21875 261.769531 224.691406 C 261.664062 224.164062 261.535156 223.644531 261.378906 223.128906 C 261.222656 222.617188 261.039062 222.109375 260.835938 221.613281 C 260.628906 221.117188 260.398438 220.632812 260.148438 220.15625 C 259.894531 219.683594 259.617188 219.222656 259.320312 218.777344 C 259.019531 218.328125 258.699219 217.898438 258.359375 217.484375 C 258.019531 217.066406 257.65625 216.667969 257.277344 216.289062 C 218.882812 177.894531 156.417969 177.894531 118.023438 216.289062 C 117.285156 217.054688 116.625 217.886719 116.046875 218.78125 C 115.46875 219.675781 114.984375 220.617188 114.589844 221.609375 C 114.195312 222.597656 113.898438 223.617188 113.703125 224.664062 C 113.507812 225.710938 113.414062 226.765625 113.425781 227.832031 C 113.433594 228.894531 113.546875 229.949219 113.761719 230.992188 C 113.976562 232.035156 114.289062 233.050781 114.699219 234.03125 C 115.113281 235.015625 115.613281 235.949219 116.207031 236.832031 C 116.800781 237.714844 117.476562 238.535156 118.230469 239.289062 C 118.980469 240.042969 119.800781 240.714844 120.683594 241.308594 C 121.570312 241.902344 122.503906 242.40625 123.484375 242.820312 C 124.46875 243.230469 125.480469 243.542969 126.523438 243.761719 C 127.566406 243.976562 128.621094 244.085938 129.683594 244.097656 C 130.75 244.105469 131.808594 244.015625 132.855469 243.816406 C 133.902344 243.621094 134.917969 243.328125 135.910156 242.933594 C 136.898438 242.539062 137.839844 242.054688 138.734375 241.476562 C 139.632812 240.898438 140.460938 240.238281 141.230469 239.5 C 141.988281 238.742188 142.765625 238.003906 143.5625 237.28125 C 144.359375 236.5625 145.175781 235.859375 146.003906 235.179688 C 146.835938 234.5 147.683594 233.839844 148.546875 233.203125 C 149.410156 232.5625 150.289062 231.945312 151.183594 231.347656 C 152.078125 230.753906 152.984375 230.179688 153.90625 229.628906 C 154.828125 229.078125 155.761719 228.546875 156.710938 228.042969 C 157.65625 227.539062 158.617188 227.054688 159.589844 226.597656 C 160.558594 226.136719 161.542969 225.703125 162.535156 225.292969 C 163.527344 224.882812 164.527344 224.496094 165.539062 224.136719 C 166.550781 223.773438 167.570312 223.4375 168.597656 223.125 C 169.625 222.816406 170.660156 222.53125 171.703125 222.269531 C 172.746094 222.007812 173.792969 221.773438 174.847656 221.5625 C 175.902344 221.355469 176.957031 221.171875 178.019531 221.015625 C 179.082031 220.855469 180.148438 220.726562 181.21875 220.621094 C 182.285156 220.515625 183.359375 220.4375 184.429688 220.382812 C 185.503906 220.332031 186.578125 220.304688 187.652344 220.304688 C 188.726562 220.304688 189.796875 220.332031 190.871094 220.382812 C 191.945312 220.4375 193.015625 220.515625 194.082031 220.621094 C 195.152344 220.726562 196.21875 220.855469 197.28125 221.015625 C 198.34375 221.171875 199.402344 221.355469 200.453125 221.5625 C 201.507812 221.773438 202.554688 222.007812 203.597656 222.269531 C 204.640625 222.53125 205.675781 222.816406 206.703125 223.125 C 207.730469 223.4375 208.75 223.773438 209.761719 224.136719 C 210.773438 224.496094 211.773438 224.882812 212.769531 225.292969 C 213.761719 225.703125 214.742188 226.136719 215.714844 226.597656 C 216.683594 227.054688 217.644531 227.539062 218.59375 228.042969 C 219.539062 228.546875 220.472656 229.078125 221.394531 229.628906 C 222.316406 230.179688 223.226562 230.753906 224.117188 231.347656 C 225.011719 231.945312 225.890625 232.5625 226.753906 233.203125 C 227.617188 233.839844 228.464844 234.5 229.296875 235.179688 C 230.125 235.859375 230.941406 236.5625 231.738281 237.28125 C 232.535156 238.003906 233.3125 238.742188 234.074219 239.5 C 234.453125 239.878906 234.851562 240.242188 235.265625 240.582031 C 235.683594 240.921875 236.113281 241.242188 236.558594 241.539062 C 237.007812 241.839844 237.46875 242.113281 237.941406 242.367188 C 238.414062 242.621094 238.898438 242.851562 239.398438 243.054688 C 239.894531 243.261719 240.398438 243.441406 240.914062 243.597656 C 241.425781 243.753906 241.949219 243.882812 242.472656 243.988281 C 243 244.09375 243.53125 244.171875 244.066406 244.226562 C 244.601562 244.277344 245.136719 244.304688 245.675781 244.304688 C 246.210938 244.304688 246.75 244.277344 247.285156 244.226562 C 247.816406 244.171875 248.347656 244.09375 248.875 243.988281 C 249.402344 243.882812 249.921875 243.753906 250.4375 243.597656 C 250.953125 243.441406 251.457031 243.261719 251.953125 243.054688 C 252.449219 242.851562 252.9375 242.621094 253.410156 242.367188 C 253.882812 242.113281 254.34375 241.839844 254.789062 241.539062 C 255.238281 241.242188 255.667969 240.921875 256.085938 240.582031 C 256.5 240.242188 256.898438 239.878906 257.277344 239.5 Z M 210.84375 309.125 C 211.285156 308.683594 211.71875 308.226562 212.136719 307.761719 C 212.554688 307.292969 212.957031 306.8125 213.347656 306.320312 C 213.738281 305.828125 214.113281 305.328125 214.476562 304.816406 C 214.839844 304.300781 215.1875 303.78125 215.515625 303.246094 C 215.847656 302.714844 216.164062 302.171875 216.464844 301.621094 C 216.765625 301.070312 217.050781 300.511719 217.320312 299.945312 C 217.589844 299.378906 217.84375 298.804688 218.078125 298.222656 C 218.3125 297.640625 218.535156 297.054688 218.734375 296.460938 C 218.9375 295.863281 219.121094 295.265625 219.289062 294.660156 C 219.457031 294.054688 219.609375 293.445312 219.742188 292.832031 C 219.875 292.21875 219.992188 291.605469 220.089844 290.984375 C 220.1875 290.363281 220.265625 289.742188 220.328125 289.117188 C 220.390625 288.492188 220.433594 287.867188 220.460938 287.242188 C 220.488281 286.613281 220.496094 285.984375 220.484375 285.359375 C 220.476562 284.730469 220.449219 284.105469 220.402344 283.476562 C 220.355469 282.851562 220.292969 282.226562 220.210938 281.605469 C 220.128906 280.984375 220.03125 280.363281 219.914062 279.746094 C 219.796875 279.132812 219.664062 278.519531 219.511719 277.910156 C 219.359375 277.300781 219.1875 276.695312 219.003906 276.097656 C 218.816406 275.5 218.613281 274.90625 218.390625 274.316406 C 218.171875 273.730469 217.933594 273.148438 217.679688 272.574219 C 217.425781 272 217.15625 271.433594 216.871094 270.878906 C 216.582031 270.320312 216.28125 269.769531 215.964844 269.226562 C 215.644531 268.6875 215.3125 268.15625 214.964844 267.632812 C 214.617188 267.109375 214.253906 266.597656 213.875 266.097656 C 213.496094 265.597656 213.105469 265.105469 212.699219 264.628906 C 212.296875 264.148438 211.875 263.683594 211.445312 263.226562 C 211.011719 262.773438 210.566406 262.332031 210.109375 261.902344 C 209.652344 261.472656 209.179688 261.054688 208.699219 260.652344 C 208.21875 260.25 207.726562 259.863281 207.222656 259.488281 C 206.71875 259.113281 206.203125 258.753906 205.679688 258.410156 C 205.15625 258.066406 204.621094 257.734375 204.078125 257.421875 C 203.535156 257.109375 202.980469 256.808594 202.421875 256.527344 C 201.863281 256.246094 201.292969 255.976562 200.71875 255.726562 C 200.140625 255.480469 199.558594 255.246094 198.972656 255.027344 C 198.382812 254.8125 197.789062 254.613281 197.1875 254.429688 C 196.585938 254.246094 195.980469 254.082031 195.371094 253.933594 C 194.761719 253.785156 194.148438 253.65625 193.53125 253.542969 C 192.914062 253.429688 192.292969 253.335938 191.671875 253.257812 C 191.046875 253.179688 190.421875 253.121094 189.796875 253.082031 C 189.171875 253.039062 188.542969 253.015625 187.917969 253.011719 C 187.289062 253.003906 186.660156 253.019531 186.035156 253.046875 C 185.40625 253.078125 184.78125 253.125 184.160156 253.191406 C 183.535156 253.257812 182.914062 253.34375 182.292969 253.445312 C 181.675781 253.546875 181.058594 253.667969 180.445312 253.804688 C 179.832031 253.941406 179.226562 254.097656 178.621094 254.269531 C 178.019531 254.441406 177.421875 254.628906 176.828125 254.835938 C 176.234375 255.042969 175.648438 255.265625 175.070312 255.503906 C 174.488281 255.746094 173.917969 256 173.351562 256.273438 C 172.785156 256.546875 172.230469 256.835938 171.679688 257.140625 C 171.132812 257.445312 170.59375 257.765625 170.0625 258.101562 C 169.53125 258.433594 169.011719 258.785156 168.5 259.152344 C 167.992188 259.515625 167.492188 259.894531 167.003906 260.289062 C 166.515625 260.683594 166.039062 261.089844 165.570312 261.511719 C 165.105469 261.933594 164.652344 262.367188 164.214844 262.816406 C 163.773438 263.261719 163.347656 263.722656 162.933594 264.195312 C 162.519531 264.664062 162.117188 265.148438 161.730469 265.644531 C 161.347656 266.136719 160.972656 266.644531 160.617188 267.160156 C 160.257812 267.675781 159.917969 268.199219 159.589844 268.734375 C 159.261719 269.269531 158.953125 269.816406 158.65625 270.367188 C 158.359375 270.921875 158.078125 271.484375 157.816406 272.054688 C 157.550781 272.621094 157.304688 273.199219 157.074219 273.78125 C 156.84375 274.367188 156.628906 274.957031 156.429688 275.550781 C 156.234375 276.148438 156.054688 276.75 155.890625 277.355469 C 155.730469 277.960938 155.585938 278.570312 155.457031 279.183594 C 155.328125 279.800781 155.21875 280.417969 155.125 281.039062 C 155.035156 281.660156 154.960938 282.28125 154.902344 282.90625 C 154.847656 283.53125 154.808594 284.15625 154.789062 284.785156 C 154.765625 285.414062 154.765625 286.039062 154.78125 286.667969 C 154.792969 287.292969 154.828125 287.921875 154.878906 288.546875 C 154.929688 289.171875 155 289.796875 155.085938 290.417969 C 155.171875 291.039062 155.277344 291.65625 155.398438 292.273438 C 155.523438 292.886719 155.660156 293.5 155.820312 294.105469 C 155.976562 294.714844 156.152344 295.316406 156.34375 295.914062 C 156.535156 296.511719 156.742188 297.105469 156.96875 297.6875 C 157.195312 298.273438 157.4375 298.851562 157.695312 299.425781 C 157.957031 299.996094 158.230469 300.558594 158.523438 301.117188 C 158.8125 301.671875 159.121094 302.21875 159.441406 302.757812 C 159.765625 303.296875 160.101562 303.824219 160.457031 304.34375 C 160.808594 304.863281 161.175781 305.371094 161.558594 305.867188 C 161.941406 306.367188 162.335938 306.855469 162.746094 307.328125 C 163.15625 307.804688 163.578125 308.265625 164.015625 308.71875 C 164.449219 309.167969 164.898438 309.605469 165.363281 310.03125 C 165.824219 310.457031 166.296875 310.871094 166.78125 311.269531 C 167.265625 311.664062 167.761719 312.050781 168.269531 312.417969 C 168.777344 312.789062 169.292969 313.144531 169.820312 313.484375 C 170.347656 313.824219 170.886719 314.148438 171.429688 314.457031 C 171.976562 314.769531 172.53125 315.0625 173.09375 315.339844 C 173.65625 315.617188 174.226562 315.878906 174.804688 316.121094 C 175.382812 316.367188 175.96875 316.597656 176.558594 316.808594 C 177.148438 317.019531 177.746094 317.214844 178.347656 317.390625 C 178.949219 317.566406 179.554688 317.726562 180.167969 317.871094 C 180.777344 318.011719 181.394531 318.136719 182.011719 318.246094 C 182.628906 318.351562 183.25 318.441406 183.875 318.511719 C 184.5 318.585938 185.125 318.640625 185.75 318.675781 C 186.375 318.710938 187.003906 318.726562 187.628906 318.726562 C 189.785156 318.726562 191.917969 318.519531 194.03125 318.097656 C 196.148438 317.679688 198.199219 317.058594 200.191406 316.234375 C 202.179688 315.410156 204.074219 314.398438 205.867188 313.203125 C 207.65625 312.007812 209.316406 310.648438 210.84375 309.125 Z M 210.84375 309.125 " fill-opacity="1" fill-rule="nonzero"/></g></svg>