<?xml version="1.0" encoding="UTF-8"?>
<svg width="44px" height="44px" viewBox="0 0 44 44" version="1.1" xmlns="http://www.w3.org/2000/svg" xmlns:xlink="http://www.w3.org/1999/xlink">
    <title>icon_line/trash</title>
    <g id="icon_line/trash" stroke="none" stroke-width="1" fill="none" fill-rule="evenodd">
        <g id="Group">
            <polygon id="Path" points="0 0 44 0 44 44 0 44"></polygon>
            <line x1="7.33333333" y1="12.8333333" x2="36.6666667" y2="12.8333333" id="Path" stroke="#008EE9" stroke-width="2" stroke-linecap="round" stroke-linejoin="round"></line>
            <line x1="18.3333333" y1="20.1666667" x2="18.3333333" y2="31.1666667" id="Path" stroke="#008EE9" stroke-width="2" stroke-linecap="round" stroke-linejoin="round"></line>
            <line x1="25.6666667" y1="20.1666667" x2="25.6666667" y2="31.1666667" id="Path" stroke="#008EE9" stroke-width="2" stroke-linecap="round" stroke-linejoin="round"></line>
            <path d="M9.16666667,12.8333333 L11,34.8333333 C11,36.8583774 12.6416226,38.5 14.6666667,38.5 L29.3333333,38.5 C31.3583774,38.5 33,36.8583774 33,34.8333333 L34.8333333,12.8333333" id="Path" stroke="#008EE9" stroke-width="2" stroke-linecap="round" stroke-linejoin="round"></path>
            <path d="M16.5,12.8333333 L16.5,7.33333333 C16.5,6.32081129 17.3208113,5.5 18.3333333,5.5 L25.6666667,5.5 C26.6791887,5.5 27.5,6.32081129 27.5,7.33333333 L27.5,12.8333333" id="Path" stroke="#008EE9" stroke-width="2" stroke-linecap="round" stroke-linejoin="round"></path>
        </g>
    </g>
</svg>