<svg width="52" height="53" xmlns="http://www.w3.org/2000/svg"><g fill="none" fill-rule="evenodd"><path d="M26 2a24.424 24.424 0 0117.322 7.178A24.424 24.424 0 0150.5 26.5a24.424 24.424 0 01-7.178 17.322A24.424 24.424 0 0126 51a24.424 24.424 0 01-17.322-7.178A24.424 24.424 0 011.5 26.5 24.424 24.424 0 018.678 9.178 24.424 24.424 0 0126 2z" stroke="#FFF" stroke-width="3" fill="#008EE9"/><g transform="translate(10 10.5)"><path d="M0 0h32v32H0z"/><rect stroke="#FFF" stroke-width="2" stroke-linecap="round" stroke-linejoin="round" x="5.333" y="17.333" width="6.667" height="9.333" rx="3.333"/><rect stroke="#FFF" stroke-width="2" stroke-linecap="round" stroke-linejoin="round" x="20" y="17.333" width="6.667" height="9.333" rx="3.333"/><path d="M5.333 20v-4C5.333 10.109 10.11 5.333 16 5.333S26.667 10.11 26.667 16v4" stroke="#FFF" stroke-width="2" stroke-linecap="round" stroke-linejoin="round"/></g></g></svg>