<?xml version="1.0" encoding="UTF-8"?>
<svg xmlns="http://www.w3.org/2000/svg" xmlns:xlink="http://www.w3.org/1999/xlink" width="44px" height="44px" viewBox="0 0 44 44" version="1.1">
  <title>icon_line/clipboard-list</title>
  <g id="icon_line/clipboard-list" stroke="none" stroke-width="1" fill="none" fill-rule="evenodd">
    <g id="Group">
      <polygon id="Path" points="0 0 44 0 44 44 0 44"></polygon>
      <path d="M16.5,9.16666667 L12.8333333,9.16666667 C10.8082893,9.16666667 9.16666667,10.8082893 9.16666667,12.8333333 L9.16666667,34.8333333 C9.16666667,36.8583774 10.8082893,38.5 12.8333333,38.5 L31.1666667,38.5 C33.1917107,38.5 34.8333333,36.8583774 34.8333333,34.8333333 L34.8333333,12.8333333 C34.8333333,10.8082893 33.1917107,9.16666667 31.1666667,9.16666667 L27.5,9.16666667" id="Path" stroke="#008EE9" stroke-width="2" stroke-linecap="round" stroke-linejoin="round"></path>
      <rect id="Rectangle" stroke="#008EE9" stroke-width="2" stroke-linecap="round" stroke-linejoin="round" x="16.5" y="5.5" width="11" height="7.33333333" rx="3.66666667"></rect>
      <line x1="16.5" y1="22" x2="16.5183333" y2="22" id="Path" stroke="#008EE9" stroke-width="2" stroke-linecap="round" stroke-linejoin="round"></line>
      <line x1="23.8333333" y1="22" x2="27.5" y2="22" id="Path" stroke="#008EE9" stroke-width="2" stroke-linecap="round" stroke-linejoin="round"></line>
      <line x1="16.5" y1="29.3333333" x2="16.5183333" y2="29.3333333" id="Path" stroke="#008EE9" stroke-width="2" stroke-linecap="round" stroke-linejoin="round"></line>
      <line x1="23.8333333" y1="29.3333333" x2="27.5" y2="29.3333333" id="Path" stroke="#008EE9" stroke-width="2" stroke-linecap="round" stroke-linejoin="round"></line>
    </g>
  </g>
</svg>
